# File created by Blade
# Date/Time:  Tue Jan 27 19:05:02 2015
# Frame Rate: 120.000 fps
#------------------------------------------------------
:FULLY-SPECIFIED
:DEGREES
2214
root -2.924546 31.440792 -4.911878 5.731495 -7.294684 -1.793067
Spine -2.147838 -4.494760 -2.709130
Head 27.449422 -0.088349 2.514448
LeftShoulder -19.975840 17.636643 12.993858
LeftArm 10.238857 -44.441212 -76.404956
LeftForeArm -2.976241 -0.000000 102.712052
LeftHand -13.567643 -0.000000 22.450725
LeftHandThumb1 -26.253704 0.000000 33.147579
RightShoulder -14.402820 -3.823839 -9.502222
RightArm 6.636477 -28.050753 81.536608
RightForeArm -25.393303 -0.000000 24.721932
RightHand -14.854519 -0.000000 9.868268
RightHandThumb1 -24.326973 -0.000000 -32.862282
LeftUpLeg -9.906746 -4.447927 -7.291527
LeftLeg 20.818286 -0.000000 -0.000000
LeftFoot -28.205376 27.453856 -14.298770
LeftToeBase 9.846708 -0.000000 -0.000000
RightUpLeg -18.209048 -6.244489 2.242592
RightLeg 93.136382 -0.000000 -0.000000
RightFoot -7.860638 -27.447304 14.447488
RightToeBase 3.252906 -0.000000 -0.000000
2215
root -2.935657 31.434975 -4.917068 5.827110 -6.782678 -1.727190
Spine -2.259741 -4.807221 -2.683703
Head 27.347865 -0.161767 2.457881
LeftShoulder -19.900814 17.509010 13.048506
LeftArm 10.365512 -44.167283 -76.386473
LeftForeArm -2.915573 -0.000000 102.555545
LeftHand -13.557751 0.000000 22.509849
LeftHandThumb1 -26.253704 0.000000 33.147579
RightShoulder -14.498010 -3.957189 -9.484752
RightArm 6.496800 -28.032851 81.624008
RightForeArm -25.337523 -0.000000 24.556957
RightHand -14.874402 -0.000000 9.861880
RightHandThumb1 -24.326973 -0.000000 -32.862282
LeftUpLeg -10.088584 -4.488695 -7.286851
LeftLeg 20.972502 -0.000000 -0.000000
LeftFoot -28.138546 27.144996 -14.125767
LeftToeBase 9.794189 -0.000000 -0.000000
RightUpLeg -18.276357 -5.489969 2.305551
RightLeg 93.073131 -0.000000 -0.000000
RightFoot -7.780158 -27.672646 13.683946
RightToeBase 3.425693 -0.000000 -0.000000
2216
root -2.936683 31.429098 -4.920145 5.891473 -6.296632 -1.626271
Spine -2.334306 -5.079404 -2.670918
Head 27.230689 -0.228198 2.374541
LeftShoulder -19.812086 17.365388 13.064864
LeftArm 10.471773 -43.909973 -76.362928
LeftForeArm -2.787136 -0.000000 102.455623
LeftHand -13.645542 -0.000000 22.507847
LeftHandThumb1 -26.253704 0.000000 33.147579
RightShoulder -14.543710 -4.021232 -9.508718
RightArm 6.263057 -27.922810 81.754923
RightForeArm -25.318240 -0.000000 24.389938
RightHand -14.840126 -0.000000 10.024657
RightHandThumb1 -24.326973 -0.000000 -32.862282
LeftUpLeg -10.217376 -4.537398 -7.331868
LeftLeg 21.077789 -0.000000 -0.000000
LeftFoot -28.063159 26.792220 -13.984638
LeftToeBase 9.759977 -0.000000 -0.000000
RightUpLeg -18.300997 -4.923596 2.247846
RightLeg 93.015022 -0.000000 -0.000000
RightFoot -8.098411 -27.444928 13.785771
RightToeBase 3.483240 -0.000000 -0.000000
2217
root -2.931690 31.423485 -4.927401 5.986757 -5.804563 -1.507849
Spine -2.433592 -5.304960 -2.647834
Head 27.106768 -0.338781 2.251878
LeftShoulder -19.685018 17.212120 13.079389
LeftArm 10.582004 -43.649509 -76.362857
LeftForeArm -2.634617 -0.000000 102.360659
LeftHand -13.752736 -0.000000 22.426030
LeftHandThumb1 -26.253704 0.000000 33.147579
RightShoulder -14.585959 -4.103307 -9.534326
RightArm 6.037507 -27.787658 81.877257
RightForeArm -25.347455 -0.000000 24.225703
RightHand -14.904415 0.000000 10.058847
RightHandThumb1 -24.326973 -0.000000 -32.862282
LeftUpLeg -10.376332 -4.622442 -7.399680
LeftLeg 21.164717 -0.000000 -0.000000
LeftFoot -27.986756 26.451831 -13.887831
LeftToeBase 9.823794 -0.000000 -0.000000
RightUpLeg -18.385126 -4.526022 2.151352
RightLeg 92.955600 -0.000000 -0.000000
RightFoot -8.389208 -27.059330 14.182570
RightToeBase 2.725675 -0.000000 -0.000000
2218
root -2.928306 31.417014 -4.928935 6.052092 -5.298565 -1.403643
Spine -2.507044 -5.573264 -2.614872
Head 26.964462 -0.445302 2.145203
LeftShoulder -19.644939 17.095871 13.064865
LeftArm 10.709385 -43.241785 -76.317572
LeftForeArm -2.784960 -0.000000 102.238938
LeftHand -13.502626 -0.000000 22.720110
LeftHandThumb1 -26.253704 0.000000 33.147579
RightShoulder -14.593919 -4.273624 -9.557775
RightArm 5.940378 -27.650283 81.955958
RightForeArm -25.286792 -0.000000 23.998479
RightHand -14.773920 -0.000000 10.157775
RightHandThumb1 -24.326973 -0.000000 -32.862282
LeftUpLeg -10.475374 -4.645820 -7.465862
LeftLeg 21.218210 -0.000000 -0.000000
LeftFoot -27.846536 26.131454 -13.640820
LeftToeBase 9.753787 -0.000000 -0.000000
RightUpLeg -18.407590 -4.336226 2.037374
RightLeg 92.872199 -0.000000 -0.000000
RightFoot -8.817441 -26.429277 14.920369
RightToeBase 2.422878 -0.000000 -0.000000
